<?xml version="1.0" encoding="UTF-8" standalone="no"?>
<!-- Created with Inkscape (http://www.inkscape.org/) -->

<svg
   width="196.03268mm"
   height="267.0491mm"
   viewBox="0 0 196.03268 267.0491"
   version="1.1"
   id="svg4368"
   inkscape:version="1.3 (0e150ed, 2023-07-21)"
   sodipodi:docname="accessible.svg"
   xmlns:inkscape="http://www.inkscape.org/namespaces/inkscape"
   xmlns:sodipodi="http://sodipodi.sourceforge.net/DTD/sodipodi-0.dtd"
   xmlns="http://www.w3.org/2000/svg"
   xmlns:svg="http://www.w3.org/2000/svg">
  <sodipodi:namedview
     id="namedview4370"
     pagecolor="#0600a7"
     bordercolor="#000000"
     borderopacity="0.25"
     inkscape:showpageshadow="2"
     inkscape:pageopacity="0.0"
     inkscape:pagecheckerboard="0"
     inkscape:deskcolor="#d1d1d1"
     inkscape:document-units="mm"
     showgrid="false"
     inkscape:zoom="0.14657694"
     inkscape:cx="627.65673"
     inkscape:cy="818.68269"
     inkscape:window-width="1312"
     inkscape:window-height="449"
     inkscape:window-x="0"
     inkscape:window-y="38"
     inkscape:window-maximized="0"
     inkscape:current-layer="layer1" />
  <defs
     id="defs4365" />
  <g
     inkscape:label="Layer 1"
     inkscape:groupmode="layer"
     id="layer1"
     transform="translate(43.901939,-145.8568)">
    <path
       id="path3"
       style="color:#000000;fill:#ffffff;stroke-linecap:round;stroke-linejoin:round;stroke-dashoffset:4.7622;-inkscape-stroke:none;paint-order:markers fill stroke"
       d="M 29.91061 145.85628 C 29.106944 145.85232 28.299735 145.86662 27.490086 145.89866 C 1.5814353 146.92379 -20.024575 166.26676 -23.902126 191.90412 C -27.28125 214.24718 -16.380341 236.00043 2.6580097 246.94262 L 2.8280252 199.59357 C 2.89031 182.27767 16.391177 170.48405 30.390684 170.30647 C 44.458754 170.12802 58.169225 181.94814 58.271669 199.56825 L 58.492328 237.41194 C 60.303123 237.02836 62.14132 236.7093 64.058396 236.7205 C 65.667246 236.72994 67.286145 236.93713 68.890143 237.27809 C 81.111178 224.38059 86.595191 205.85472 82.359605 187.69921 C 76.652767 163.23732 54.824252 145.97901 29.91061 145.85628 z M 30.515741 180.30689 C 21.987519 180.41507 12.871912 187.40081 12.827932 199.62871 L 12.64293 251.20799 A 6.0006 6.0006 0 0 0 13.829938 251.38679 L 13.906419 251.38266 A 6.0006 6.0006 0 0 0 14.642808 251.20954 L 14.828326 199.63646 C 14.848405 194.05488 16.616535 189.41522 19.74999 186.42383 C 22.883445 183.43245 26.924211 182.35267 30.541062 182.30677 C 34.086403 182.2618 38.197956 183.15961 41.37916 186.17165 C 44.560365 189.1837 46.237848 193.87287 46.271368 199.63853 L 46.56334 249.8489 A 6.0006 6.0006 0 0 0 47.767401 250.04476 L 49.449469 249.97654 A 6.0006 6.0006 0 0 0 51.652435 249.46288 C 51.891854 249.35629 52.123193 249.23825 52.360402 249.12853 A 5.0005 5.0005 0 0 1 48.531179 244.3495 L 48.271246 199.62716 C 48.198092 187.04499 38.975399 180.19958 30.515741 180.30689 z " />
    <path
       style="fill:none;stroke:#ffffff;stroke-width:12;stroke-linecap:round;stroke-linejoin:round;stroke-dasharray:none;stroke-dashoffset:4.7622;paint-order:markers fill stroke"
       d="m -31.37461,304.37177 c 8.85712,13.37929 20.32703,44.10208 31.97302,66.88606 7.60911,14.8863 24.07489,35.64808 35.28057,35.64808 h 59.535961 c 12.669589,0 50.715809,-22.92803 50.715809,-63.21102 v -53.28836 c 0,-26.48262 -32.70801,-26.61511 -32.70801,-5.14509 0,-38.26445 -33.07553,-29.07757 -33.07553,-11.02515 0,-38.9606 -32.70803,-27.95145 -32.70803,-11.3927 l -0.36751,-63.21102 c -0.14452,-24.85742 -33.35667,-24.01189 -33.44304,0 l -0.3675,102.16666 C 8.31605,294.0816 -0.02799,288.60726 -9.32426,277.54381 c -11.47283,-13.65375 -41.81236,-3.0239 -22.05035,26.82796 z"
       id="path2930"
       sodipodi:nodetypes="sssssscccsscss" />
    <path
       style="color:#000000;fill:#ffffff;stroke-linecap:round;stroke-linejoin:round;stroke-dashoffset:4.7622;-inkscape-stroke:none;paint-order:markers fill stroke"
       d="m 30.453125,175.30664 c -11.263887,0.14288 -22.5718658,9.53276 -22.625,24.30469 l -0.3105469,86.62109 c -3.8414811,-3.65041 -7.98392109,-7.47411 -12.2480468,-12.54883 -7.9055343,-9.40833 -21.5676733,-10.53874 -30.8222653,-3.92187 -4.627297,3.30843 -7.992602,8.9347 -8.320313,15.60937 -0.32771,6.67468 2.075049,14.12365 7.496094,22.3125 7.839474,11.84207 19.7186,42.99597 31.6328124,66.30469 4.0883343,7.99833 10.295528,17.19165 17.2128906,24.73242 6.917363,7.54078 14.101744,14.18555 23.410156,14.18555 h 59.535156 c 4.977078,0 10.146848,-1.82826 16.037108,-4.88867 5.89027,-3.06041 12.2665,-7.49611 18.25195,-13.30469 11.97092,-11.61716 22.42774,-28.98716 22.42774,-51.01758 v -53.28906 c 0,-15.71144 -10.79033,-25.64119 -21.87109,-26.53516 -4.86065,-0.39214 -9.76597,0.86138 -13.87696,3.66016 -0.91883,-2.28465 -1.96642,-4.41461 -3.28515,-6.2168 -4.10374,-5.60816 -10.21174,-8.51948 -16.046879,-8.68164 -4.892128,-0.13594 -9.616924,1.48128 -13.519531,4.25586 -0.945213,-2.49698 -2.040199,-4.81244 -3.453125,-6.74219 -4.095108,-5.59301 -10.262995,-8.39185 -16.048828,-8.42578 -3.701152,-0.0217 -7.280478,0.96242 -10.498047,2.59961 l -0.259766,-44.72265 c -0.0878,-15.10117 -11.554472,-24.4339 -22.818359,-24.29102 z m 0.150391,12 c 5.399893,-0.0685 10.611246,2.6051 10.667968,12.36133 l 0.367188,63.17578 v 0.0352 a 6.0006,6.0006 0 0 0 12,-0.0352 c 0,-4.32883 5.53798,-9.15109 10.320312,-9.12305 2.391167,0.014 4.397906,0.73266 6.435547,3.51563 2.037642,2.78297 3.953125,8.09937 3.953125,17 a 6.0006,6.0006 0 0 0 12,0 c 0,-5.36182 5.503625,-9.74464 10.371094,-9.60938 2.433734,0.0676 4.59544,0.90642 6.69336,3.77344 2.09792,2.86702 4.00976,8.15962 4.00977,16.86133 a 6.0006,6.0006 0 0 0 12,0 c 0,-3.84408 1.24915,-5.92748 2.98632,-7.39649 1.73718,-1.469 4.25011,-2.24591 6.88672,-2.0332 5.27323,0.42543 10.83594,3.80307 10.83594,14.57422 v 53.28906 c 0,18.25253 -8.56558,32.48868 -18.78516,42.40625 -5.10978,4.95879 -10.62102,8.77015 -15.42773,11.26758 -4.80671,2.49743 -9.146202,3.53711 -10.503908,3.53711 H 35.878906 c -1.897256,0 -8.549147,-3.73715 -14.568359,-10.29883 C 15.291335,384.04574 9.4621743,375.4153 5.9414062,368.52734 -5.4363386,346.26815 -16.496345,315.97703 -26.371094,301.06055 c -4.45995,-6.73706 -5.677036,-11.81205 -5.515625,-15.09961 0.161412,-3.28757 1.393021,-5.06371 3.314453,-6.4375 3.842865,-2.74758 11.087013,-2.36455 14.654297,1.88086 9.8067062,11.67091 18.1760186,17.40659 22.386719,23.72265 a 6.0006,6.0006 0 0 0 10.992187,-3.30664 L 19.828125,199.6543 c 0.03324,-9.23994 5.375497,-12.27916 10.775391,-12.34766 z"
       id="path4" />
  </g>
</svg>
